<svg xmlns="http://www.w3.org/2000/svg" viewBox="0 0 64 64" role="img" aria-labelledby="title">
  <title id="title">Chemical equilibrium simulator</title>
  <defs>
    <linearGradient id="bg" x1="10" x2="54" y1="7" y2="58" gradientUnits="userSpaceOnUse">
      <stop stop-color="#0c2f36" />
      <stop offset="1" stop-color="#07141a" />
    </linearGradient>
    <linearGradient id="liquid" x1="15" x2="51" y1="35" y2="53" gradientUnits="userSpaceOnUse">
      <stop stop-color="#0f766e" />
      <stop offset=".58" stop-color="#155e75" />
      <stop offset="1" stop-color="#ef8354" />
    </linearGradient>
  </defs>
  <rect width="64" height="64" rx="14" fill="url(#bg)" />
  <path
    fill="#0c1e26"
    stroke="#83c5be"
    stroke-linejoin="round"
    stroke-width="3.4"
    d="M21 13h22v13l8 17.5C53.7 49.5 49.3 56 42.7 56H21.3c-6.6 0-11-6.5-8.3-12.5L21 26V13Z"
  />
  <path
    fill="url(#liquid)"
    d="M16.2 41.6c5.8-5.4 11.4-1.8 17.6-5.3 4.5-2.6 7.7-7.1 13.4-6.5l4 9c4.1 9.1-2.6 15.1-9.2 15.1H22.1c-6.7 0-11.5-5.4-7.3-14.6l1.4 2.3Z"
    opacity=".96"
  />
  <path stroke="#eef8fb" stroke-linecap="round" stroke-width="3.6" d="M19 29h22" />
  <path
    fill="none"
    stroke="#eef8fb"
    stroke-linecap="round"
    stroke-linejoin="round"
    stroke-width="3.6"
    d="m37 24.5 5.7 4.5-5.7 4.5"
  />
  <path stroke="#ffd166" stroke-linecap="round" stroke-width="3.6" d="M45 42H23" />
  <path
    fill="none"
    stroke="#ffd166"
    stroke-linecap="round"
    stroke-linejoin="round"
    stroke-width="3.6"
    d="M27 37.5 21.3 42l5.7 4.5"
  />
  <circle cx="23" cy="36" r="4" fill="#7bdff2" />
  <circle cx="32" cy="22" r="3.7" fill="#a06cd5" />
  <circle cx="42.5" cy="36" r="4.2" fill="#ff7f51" />
  <circle cx="33" cy="49" r="3.2" fill="#80ed99" />
  <path stroke="#ffb870" stroke-linecap="round" stroke-width="3.4" d="M44 14v13" />
</svg>
